{"title":"Shrek Forever After 2010 DVDrip Dutch English Klam","uid":6555638,"size":1790816212,"categoryP":"video","categoryS":"movies","magnet":"?xt=urn:btih:2ce85baab846c7d52a4066cdfc9020483a922926&amp;dn=Shrek+Forever+After+2010+DVDrip+Dutch+English+Klam&amp;tr=udp%3A%2F%2Ftracker.openbittorrent.com%3A80&amp;tr=udp%3A%2F%2Fopen.demonii.com%3A1337&amp;tr=udp%3A%2F%2Ftracker.coppersurfer.tk%3A6969&amp;tr=udp%3A%2F%2Fexodus.desync.com%3A6969","seeders":1,"leechers":0,"uploader":"Klambake","files":-1,"time":1311282639,"description":"Nederlands of Engels gesproken\nEnglish or Dutch spoken\n\nMet bekende Nederlandse stemmen\nIn plaats van het afschrikken van menig dorpsbewoner is Shrek (Mike Myers) inmiddels een echte familieman geworden. Shrek komt in contact met de gladde praatjesmaker Repelsteeltje. Hierdoor komt hij tot zijn schrik terecht in een alternatieve versie van zijn wereld, Far Far Away, waar er gejaagd wordt op Ogres en hij Fiona (Cameron Diaz) helemaal nooit ontmoet heeft. Aan hem de taak om zijn vertrouwde wereld weer terug te krijgen.\n\nWith the voices of Mike Myers, Cameron Diaz and Eddie Murphy\nRumpelstiltskin tricks a mid-life crisis burdened Shrek into allowing himself to be erased from existence and cast in a dark alternate timeline where Rumpel rules supreme.\n\n------------------ Dutch Friends ------------------\nYou can find my Friends at: http://www.Film-Test.nl \n------ They got my dutchs subs ---- and more ------\n\nGeneral:\n\nComplete name                    : Shrek Forever After\\Shrek Forever After.avi\nFormat                           : AVI\nFormat/Info                      : Audio Video Interleave\nFile size                        : 1.67 GiB\nDuration                         : 1h 29mn\nOverall bit rate                 : 2 669 Kbps\n\nVideo:\n\nFormat                           : MPEG-4 Visual\nFormat profile                   : Simple@L3\nFormat settings, BVOP            : No\nFormat settings, QPel            : No\nFormat settings, GMC             : No warppoints\nFormat settings, Matrix          : Default (H.263)\nCodec ID                         : XVID\nCodec ID/Hint                    : XviD\nDuration                         : 1h 29mn\nBit rate                         : 1 757 Kbps\nWidth                            : 720 pixels\nHeight                           : 500 pixels\nDisplay aspect ratio             : 1.440\nFrame rate                       : 25.000 fps\nColor space                      : YUV\nChroma subsampling               : 4:2:0\nBit depth                        : 8 bits\nScan type                        : Progressive\nBits/(Pixel*Frame)               : 0.195\nStream size                      : 1.10 GiB (66%)\nWriting library                  : XviD 1.1.2 (UTC 2006-11-01)\n\nAudio's:\n\nFormat                           : AC-3\nFormat/Info                      : Audio Coding 3\nMode extension                   : CM (complete main)\nCodec ID                         : 2000\nDuration                         : 1h 29mn\nBit rate mode                    : Constant\nBit rate                         : 448 Kbps\nChannel(s)                       : 6 channels\nChannel positions                : Front: L C R, Side: L R, LFE\nSampling rate                    : 48.0 KHz\nBit depth                        : 16 bits\nStream size                      : 286 MiB (17%)\nAlignment                        : Aligned on interleaves\nInterleave, duration             : 32 ms (0.80 video frame)\nInterleave, preload duration     : 32 ms\n\n\n","torrent":{"xt":"urn:btih:2ce85baab846c7d52a4066cdfc9020483a922926","amp;dn":"Shrek+Forever+After+2010+DVDrip+Dutch+English+Klam","amp;tr":["udp%3A%2F%2Ftracker.openbittorrent.com%3A80","udp%3A%2F%2Fopen.demonii.com%3A1337","udp%3A%2F%2Ftracker.coppersurfer.tk%3A6969","udp%3A%2F%2Fexodus.desync.com%3A6969"],"infoHash":"2ce85baab846c7d52a4066cdfc9020483a922926","infoHashBuffer":{"type":"Buffer","data":[44,232,91,170,184,70,199,213,42,64,102,205,252,144,32,72,58,146,41,38]},"announce":[],"urlList":[]}}